<?xml version="1.0" standalone="no"?>
<!DOCTYPE svg PUBLIC "-//W3C//DTD SVG 20010904//EN"
 "http://www.w3.org/TR/2001/REC-SVG-20010904/DTD/svg10.dtd">
<svg version="1.0" xmlns="http://www.w3.org/2000/svg"
 width="2153.000000pt" height="763.000000pt" viewBox="0 0 2153.000000 763.000000"
 preserveAspectRatio="xMidYMid meet">

<g transform="translate(0.000000,763.000000) scale(0.100000,-0.100000)"
fill="#000000" stroke="none">
<path d="M0 3815 l0 -3815 10765 0 10765 0 -1 1298 c0 713 -3 1290 -6 1282
-26 -77 -68 -123 -128 -139 -45 -12 -272 -15 -277 -3 -1 4 -20 15 -40 24 -21
10 -38 24 -38 33 0 8 -5 15 -11 15 -5 0 -19 21 -30 48 -11 26 -24 55 -29 64
-6 10 -10 25 -10 33 0 8 -4 15 -8 15 -8 0 -19 22 -75 150 -20 47 -65 145 -123
266 -19 40 -34 76 -34 80 0 13 -64 139 -72 142 -5 2 -8 12 -8 22 0 10 -4 22
-10 25 -5 3 -10 13 -10 21 0 20 -37 101 -50 109 -5 3 -10 14 -10 23 0 9 -13
43 -29 77 -17 33 -38 78 -47 100 -9 22 -37 83 -61 135 -78 166 -129 278 -154
337 -8 18 -17 33 -21 33 -5 0 -8 9 -8 19 0 11 -5 23 -10 26 -5 3 -10 13 -10
22 0 19 -30 84 -47 101 -7 7 -13 21 -13 30 0 9 -13 43 -29 77 -46 93 -97 208
-105 233 -4 12 -11 22 -16 22 -4 0 -11 12 -15 28 -6 24 -30 80 -95 217 -11 22
-25 55 -32 73 -7 17 -16 32 -20 32 -5 0 -8 7 -8 15 0 8 -4 23 -10 33 -5 9 -18
38 -29 65 -11 26 -25 47 -30 47 -6 0 -11 11 -11 25 0 13 -13 53 -29 87 -17 35
-36 78 -43 96 -7 17 -16 32 -20 32 -5 0 -8 8 -8 18 0 10 -4 22 -9 28 -5 5 -14
26 -21 47 -6 20 -15 37 -20 37 -4 0 -11 11 -14 25 -6 24 -38 97 -91 210 -13
28 -30 65 -37 83 -7 17 -16 32 -20 32 -5 0 -8 7 -8 15 0 8 -4 23 -10 33 -5 9
-19 38 -30 65 -11 26 -25 47 -30 47 -6 0 -10 9 -10 20 0 11 -13 50 -29 87 -16
38 -35 83 -43 101 -7 17 -16 32 -20 32 -5 0 -8 8 -8 18 0 10 -4 22 -9 28 -5 5
-14 26 -21 47 -6 20 -15 37 -20 37 -4 0 -11 11 -14 25 -6 24 -38 97 -91 210
-13 28 -30 65 -37 83 -7 17 -16 32 -20 32 -5 0 -8 6 -8 13 0 30 -26 67 -46 67
-24 0 -34 -17 -34 -56 0 -13 -4 -24 -10 -24 -5 0 -19 -21 -30 -48 -11 -26 -25
-55 -30 -64 -6 -10 -10 -25 -10 -33 0 -8 -3 -15 -8 -15 -4 0 -13 -15 -20 -32
-7 -18 -24 -55 -37 -83 -53 -113 -85 -186 -91 -210 -3 -14 -10 -25 -14 -25 -5
0 -12 -10 -16 -22 -6 -22 -41 -99 -105 -236 -16 -34 -29 -74 -29 -87 0 -14 -6
-25 -13 -25 -7 0 -21 -24 -31 -52 -11 -29 -23 -57 -27 -62 -5 -6 -9 -18 -9
-28 0 -10 -3 -18 -8 -18 -4 0 -13 -15 -20 -32 -7 -18 -21 -51 -32 -73 -65
-137 -89 -193 -95 -217 -4 -16 -11 -28 -15 -28 -5 0 -12 -10 -16 -22 -8 -25
-59 -140 -105 -233 -16 -34 -29 -68 -29 -77 0 -9 -6 -23 -13 -30 -17 -17 -47
-82 -47 -101 0 -9 -5 -19 -10 -22 -5 -3 -10 -15 -10 -26 0 -10 -3 -19 -8 -19
-4 0 -13 -15 -21 -33 -25 -59 -76 -171 -154 -337 -24 -52 -52 -113 -61 -135
-9 -22 -30 -67 -47 -100 -16 -34 -29 -68 -29 -78 0 -9 -4 -17 -8 -17 -10 0
-52 -94 -52 -115 0 -7 -5 -17 -10 -20 -5 -3 -10 -15 -10 -25 0 -10 -3 -20 -7
-22 -10 -4 -73 -126 -73 -140 0 -6 -15 -42 -34 -82 -58 -121 -103 -219 -123
-266 -56 -128 -67 -150 -75 -150 -4 0 -8 -7 -8 -15 0 -8 -4 -23 -10 -33 -20
-36 -50 -112 -50 -126 0 -8 -4 -18 -10 -21 -5 -3 -10 -15 -10 -25 0 -10 -3
-20 -7 -22 -9 -4 -73 -125 -73 -138 0 -9 -65 -155 -81 -180 -5 -8 -16 -31 -25
-50 -8 -19 -22 -50 -30 -67 -8 -18 -20 -48 -28 -65 -39 -94 -60 -138 -68 -138
-4 0 -8 -6 -8 -14 0 -46 -212 -81 -341 -57 -50 10 -73 20 -102 47 -35 33 -39
41 -44 104 -5 60 -3 72 16 96 11 14 21 30 21 35 0 9 44 112 60 141 6 10 10 25
10 33 0 8 3 15 8 15 8 0 32 49 32 67 0 7 3 13 8 13 4 0 13 15 20 33 7 17 26
59 42 92 17 34 30 68 30 77 0 9 6 23 13 30 17 17 47 82 47 101 0 9 5 19 10 22
5 3 10 15 10 25 0 10 3 20 8 22 7 3 38 65 97 193 15 33 40 87 56 120 66 140
79 170 79 182 0 7 4 13 9 13 5 0 15 17 21 38 7 20 16 41 21 46 5 6 9 18 9 28
0 10 3 18 8 18 4 0 13 15 20 33 7 17 40 87 73 154 32 67 59 130 59 142 0 11 5
23 10 26 6 3 10 15 10 25 0 10 3 20 8 22 14 6 215 431 228 483 3 14 10 25 14
25 5 0 12 10 16 22 4 13 21 55 39 93 18 39 43 94 55 123 13 28 27 52 32 52 4
0 8 6 8 13 0 8 14 41 30 75 17 34 30 71 30 82 0 10 5 22 10 25 5 3 10 15 10
25 0 10 3 20 8 22 10 4 72 128 72 144 0 8 3 14 8 14 4 0 13 15 20 33 7 17 24
55 37 82 13 28 36 77 50 110 15 33 46 101 70 150 23 50 49 106 57 125 46 108
62 140 70 140 4 0 8 6 8 13 0 8 13 41 30 75 17 34 30 71 30 82 0 10 5 22 10
25 6 3 10 15 10 25 0 10 3 20 7 22 11 4 73 128 73 144 0 8 3 14 8 14 4 0 13
15 20 33 7 17 21 50 32 72 10 22 33 72 50 110 18 39 52 111 75 160 24 50 50
108 60 130 28 68 60 130 67 133 5 2 8 12 8 22 0 10 3 20 7 22 11 4 53 109 53
130 0 9 5 20 10 23 6 3 10 15 10 26 0 10 6 19 14 19 8 0 16 3 18 8 2 4 16 18
31 32 27 24 36 25 185 31 86 3 -4146 6 -9405 7 l-9563 2 0 -3815z m400 3768
c0 -9 48 -33 64 -33 6 0 22 -22 36 -48 l25 -47 2 -2260 c3 -2142 4 -2260 20
-2267 10 -3 646 -7 1414 -7 l1397 -1 40 -32 c23 -18 41 -39 41 -45 1 -7 6 -13
11 -13 14 0 13 -242 -2 -288 -7 -20 -30 -53 -51 -72 l-40 -35 -1586 -3 c-1210
-2 -1596 0 -1629 9 -48 13 -101 58 -120 102 -9 22 -12 571 -12 2474 l0 2446
27 43 c41 64 95 83 246 83 64 1 117 -2 117 -6z m7404 -14 c38 -15 56 -27 56
-39 0 -10 7 -23 15 -30 12 -10 15 -40 15 -152 0 -143 -4 -162 -50 -208 -39
-41 -7 -40 -1800 -40 -1793 0 -1761 -1 -1800 40 -46 46 -50 65 -50 209 0 124
2 142 19 158 10 10 20 24 23 32 2 8 24 22 48 32 43 17 130 18 1757 18 l1711 1
56 -21z m4470 -1 c26 -14 54 -40 70 -64 24 -38 26 -49 26 -155 0 -82 -4 -122
-15 -143 -8 -15 -15 -33 -15 -38 0 -14 -27 -38 -43 -38 -8 0 -20 -7 -27 -15
-11 -13 -114 -15 -820 -15 l-808 0 -6 -22 c-3 -13 -6 -1030 -6 -2261 0 -2116
-1 -2239 -18 -2270 -50 -94 -84 -110 -245 -115 -107 -3 -121 -1 -160 20 -48
26 -67 48 -84 98 -10 27 -13 523 -13 2283 0 1237 -2 2253 -6 2258 -3 5 -332 9
-811 9 l-806 0 -43 27 c-23 15 -45 34 -49 43 -3 8 -12 26 -20 40 -11 18 -15
57 -15 143 0 64 3 117 8 117 8 0 32 49 32 67 0 7 6 13 13 13 18 0 67 24 67 33
0 4 844 7 1875 7 l1875 0 44 -22z m4366 12 c0 -5 5 -10 11 -10 6 0 30 -19 53
-41 l41 -42 3 -130 c4 -153 -7 -189 -74 -231 l-41 -26 -806 0 c-479 0 -808 -4
-811 -9 -4 -5 -6 -1020 -6 -2255 0 -2315 0 -2326 -37 -2326 -7 0 -13 -7 -13
-15 0 -9 -17 -23 -37 -33 -21 -9 -41 -21 -44 -25 -10 -13 -240 -2 -281 14 -20
7 -43 24 -49 36 -7 13 -18 23 -26 23 -7 0 -13 9 -13 19 0 11 -4 23 -10 26 -7
4 -10 766 -10 2253 0 1236 -3 2257 -6 2270 l-6 22 -805 0 c-724 0 -807 2 -836
16 -73 38 -87 74 -87 225 0 115 1 124 27 165 15 23 34 45 43 49 8 3 26 12 40
20 22 13 269 15 1903 15 1245 0 1877 -3 1877 -10z m-8841 -2322 c77 -27 92
-65 92 -230 0 -152 -10 -182 -73 -216 l-43 -22 -1735 0 -1735 0 -43 22 c-63
34 -73 64 -73 216 0 162 15 202 86 229 46 17 3475 18 3524 1z m13 -2388 c16
-8 28 -21 28 -27 0 -7 7 -13 15 -13 8 0 15 -9 15 -19 0 -11 5 -23 10 -26 17
-10 12 -265 -5 -295 -8 -14 -17 -32 -21 -40 -3 -8 -22 -23 -43 -32 -35 -17
-141 -18 -1771 -18 -1630 0 -1736 1 -1771 18 -21 9 -40 24 -43 32 -4 8 -13 26
-21 40 -17 30 -22 285 -5 295 6 3 10 15 10 26 0 10 7 19 15 19 8 0 15 6 15 14
0 7 10 17 23 21 12 5 31 11 42 16 11 4 799 6 1750 6 1517 -2 1733 -4 1757 -17z
m-149 -2037 c-13 -2 -33 -2 -45 0 -13 2 -3 4 22 4 25 0 35 -2 23 -4z m2880 0
c-13 -2 -33 -2 -45 0 -13 2 -3 4 22 4 25 0 35 -2 23 -4z m-3023 -48 c0 -8 -8
-15 -17 -15 -10 0 -28 -3 -40 -6 -19 -5 -23 -2 -23 15 0 18 6 21 40 21 29 0
40 -4 40 -15z m333 -10 c15 -22 16 -25 2 -25 -8 0 -15 5 -15 10 0 6 -18 10
-40 10 -29 0 -40 4 -40 15 0 11 11 15 38 15 28 -1 41 -7 55 -25z m944 -22 c-3
-2 -16 -3 -29 -1 l-23 3 25 25 25 25 3 -23 c2 -13 1 -26 -1 -29z m403 32 c0
-11 -11 -15 -40 -15 -29 0 -40 4 -40 15 0 11 11 15 40 15 29 0 40 -4 40 -15z
m1200 0 c0 -11 -11 -15 -40 -15 -22 0 -40 -4 -40 -10 0 -5 -7 -10 -17 -10 -15
0 -14 2 1 19 27 30 96 41 96 16z m334 -12 l19 -26 -24 7 c-13 4 -39 9 -56 13
-47 8 -43 33 5 33 28 -1 41 -7 56 -27z m1026 10 c1 -16 2 -16 15 1 33 43 40 6
43 -219 3 -189 1 -215 -12 -215 -14 0 -16 26 -16 200 0 110 -4 200 -9 200 -5
0 -10 -107 -13 -237 -3 -175 -7 -238 -16 -241 -14 -4 -16 -82 -2 -82 6 0 10
-8 10 -17 0 -15 -3 -15 -21 4 -19 19 -20 27 -14 97 5 55 11 76 21 76 11 0 14
36 14 199 l0 200 -32 3 -33 3 23 23 c26 26 42 28 42 5z m1866 6 c10 -17 -10
-25 -60 -21 -31 3 -46 9 -46 18 0 17 95 20 106 3z m-1266 -269 c0 -160 -4
-250 -10 -250 -5 0 -10 -18 -10 -40 0 -22 -4 -40 -10 -40 -5 0 -10 18 -10 40
0 22 5 40 10 40 6 0 10 87 10 240 0 153 -4 240 -10 240 -5 0 -10 9 -10 20 0
18 3 19 20 10 19 -10 20 -21 20 -260z m840 245 c0 -8 -4 -15 -10 -15 -6 0 -10
-113 -10 -320 0 -207 4 -320 10 -320 6 0 10 -18 10 -40 0 -22 -4 -40 -10 -40
-5 0 -10 18 -10 40 0 22 -4 40 -10 40 -15 0 -13 643 2 658 16 16 28 15 28 -3z
m-5542 -27 c56 -6 102 -15 102 -20 0 -11 -16 -10 -137 4 -57 6 -103 15 -103
20 0 11 16 10 138 -4z m1642 -6 c0 -23 19 -42 42 -42 10 0 18 -4 18 -10 0 -5
-18 -10 -40 -10 l-40 0 0 40 c0 22 5 40 10 40 6 0 10 -8 10 -18z m4300 8 c0
-5 -4 -10 -9 -10 -5 0 -23 -3 -40 -6 -24 -5 -31 -3 -31 10 0 12 10 16 40 16
22 0 40 -4 40 -10z m-4417 -10 c9 0 17 -7 17 -15 0 -11 -11 -15 -40 -15 -34 0
-40 3 -40 21 0 17 4 20 23 15 12 -3 30 -6 40 -6z m1377 0 c0 -5 -18 -10 -40
-10 -22 0 -40 5 -40 10 0 6 18 10 40 10 22 0 40 -4 40 -10z m-1520 -10 c0 -6
-33 -10 -80 -10 -47 0 -80 4 -80 10 0 6 33 10 80 10 47 0 80 -4 80 -10z m4400
0 c0 -6 -33 -10 -80 -10 -47 0 -80 4 -80 10 0 6 33 10 80 10 47 0 80 -4 80
-10z m-6096 -35 c4 -10 -1 -15 -14 -15 -20 0 -26 11 -13 23 10 11 20 8 27 -8z
m2896 0 c0 -8 -7 -15 -15 -15 -16 0 -20 12 -8 23 11 12 23 8 23 -8z m608 -3
c2 -7 -3 -12 -12 -12 -9 0 -16 7 -16 16 0 17 22 14 28 -4z m2862 3 c10 -13 9
-15 -9 -15 -12 0 -21 6 -21 15 0 8 4 15 9 15 5 0 14 -7 21 -15z m-6270 -25 c0
-5 -9 -10 -19 -10 -23 0 -31 -11 -47 -60 -12 -35 -12 -35 -13 23 l-1 57 40 0
c22 0 40 -4 40 -10z m400 -6 c0 -14 -3 -14 -15 -4 -8 7 -15 14 -15 16 0 2 7 4
15 4 8 0 15 -7 15 -16z m1010 -104 c0 -100 -2 -120 -15 -120 -12 0 -15 20 -15
120 0 100 3 120 15 120 13 0 15 -20 15 -120z m410 104 c0 -11 -5 -14 -16 -10
-9 3 -22 6 -30 6 -8 0 -14 5 -14 10 0 6 14 10 30 10 21 0 30 -5 30 -16z m1090
12 c0 -2 -7 -9 -15 -16 -12 -10 -15 -10 -15 4 0 9 7 16 15 16 8 0 15 -2 15 -4z
m370 -12 c0 -14 -3 -14 -15 -4 -8 7 -15 14 -15 16 0 2 7 4 15 4 8 0 15 -7 15
-16z m2567 -166 c-2 -35 -3 -7 -3 62 0 69 1 97 3 63 2 -35 2 -91 0 -125z
m-4011 57 c0 -56 -3 -84 -10 -82 -14 4 -19 69 -11 125 10 68 20 48 21 -43z
m4400 0 c0 -55 -4 -84 -10 -82 -29 10 -31 167 -3 167 8 0 12 -26 13 -85z
m-2775 10 c-2 -35 1 -45 13 -45 13 0 16 -14 16 -80 0 -64 -3 -80 -15 -80 -12
0 -15 16 -15 80 0 47 -4 80 -10 80 -5 0 -10 26 -10 57 0 44 3 54 12 45 7 -7
11 -32 9 -57z m-3628 38 c-8 -3 -13 -22 -13 -44 0 -21 -4 -39 -10 -39 -18 0
-11 72 7 86 10 7 20 10 23 7 3 -3 -1 -8 -7 -10z m2887 -43 c0 -22 -4 -40 -10
-40 -6 0 -10 -33 -10 -80 0 -47 4 -80 10 -80 6 0 10 -23 10 -51 0 -31 -4 -48
-10 -44 -5 3 -10 26 -10 51 0 24 -4 44 -10 44 -6 0 -10 33 -10 80 0 47 4 80
10 80 6 0 10 18 10 40 0 22 5 40 10 40 6 0 10 -18 10 -40z m120 31 c0 -6 -4
-13 -10 -16 -5 -3 -10 -17 -10 -31 0 -13 -4 -24 -10 -24 -14 0 -12 36 2 60 13
21 28 27 28 11z m-2360 -131 c0 -6 -45 -10 -114 -10 -63 0 -123 -3 -133 -7
-16 -6 -16 -5 -4 10 11 14 33 17 132 17 73 0 119 -4 119 -10z m1285 -10 c4 -6
-6 -10 -22 -10 -22 0 -25 2 -13 10 19 12 27 12 35 0z m-1257 -166 c-6 -155
-10 -174 -43 -174 -5 0 -4 4 4 9 10 6 15 48 19 165 3 94 9 156 15 156 6 0 8
-55 5 -156z m1352 152 c0 -3 -4 -8 -10 -11 -5 -3 -10 -1 -10 4 0 6 5 11 10 11
6 0 10 -2 10 -4z m959 -123 c1 -18 -3 -33 -9 -33 -6 0 -9 33 -9 83 2 77 2 79
9 32 5 -27 9 -65 9 -82z m3469 116 c-2 -6 -8 -10 -13 -10 -5 0 -11 4 -13 10
-2 6 4 11 13 11 9 0 15 -5 13 -11z m-208 -36 c0 -10 -27 -13 -120 -13 -93 0
-120 3 -120 13 0 11 27 14 120 14 93 0 120 -3 120 -14z m-6260 -73 c0 -22 5
-40 10 -40 6 0 10 -7 10 -15 0 -19 -9 -19 -32 2 -23 21 -26 93 -3 93 11 0 15
-11 15 -40z m6243 33 c-13 -2 -33 -2 -45 0 -13 2 -3 4 22 4 25 0 35 -2 23 -4z
m105 -13 c-9 -14 -24 -20 -50 -20 -20 0 -38 -5 -40 -11 -5 -16 -158 -1 -158
16 0 9 31 12 117 12 82 -1 118 3 121 11 2 7 8 12 13 12 5 0 4 -9 -3 -20z
m-4568 -5 c0 -12 -16 -15 -80 -15 -64 0 -80 3 -80 15 0 12 16 15 80 15 64 0
80 -3 80 -15z m-1660 -87 c0 -23 4 -28 26 -28 26 0 54 -20 54 -39 0 -25 33
-41 86 -41 30 0 54 -4 54 -10 0 -11 -118 -14 -144 -4 -10 4 -16 18 -16 40 0
30 -3 34 -26 34 -36 0 -54 22 -54 67 0 28 3 34 10 23 5 -8 10 -27 10 -42z
m1470 -88 c0 -100 -2 -120 -15 -120 -12 0 -15 20 -15 120 0 100 3 120 15 120
13 0 15 -20 15 -120z m270 104 c0 -14 -3 -14 -15 -4 -8 7 -15 14 -15 16 0 2 7
4 15 4 8 0 15 -7 15 -16z m108 4 c-6 -18 -28 -21 -28 -4 0 9 7 16 16 16 9 0
14 -5 12 -12z m1572 -27 c0 -39 0 -39 -44 -42 -32 -3 -42 -1 -39 9 3 6 13 12
22 12 22 0 41 19 41 42 0 10 5 18 10 18 6 0 10 -18 10 -39z m100 25 c0 -8 -4
-18 -10 -21 -5 -3 -10 3 -10 14 0 12 5 21 10 21 6 0 10 -6 10 -14z m2387 -108
c-2 -24 -4 -5 -4 42 0 47 2 66 4 43 2 -24 2 -62 0 -85z m-4007 57 c0 -8 5 -15
10 -15 6 0 10 -13 10 -30 0 -27 3 -30 30 -30 17 0 30 -4 30 -10 0 -15 -49 -12
-66 4 -8 8 -14 26 -14 40 0 16 -6 26 -15 26 -16 0 -20 12 -8 23 11 12 23 8 23
-8z m2580 0 c10 -12 10 -15 -4 -15 -9 0 -16 7 -16 15 0 8 2 15 4 15 2 0 9 -7
16 -15z m364 0 c4 -10 -1 -15 -14 -15 -20 0 -26 11 -13 23 10 11 20 8 27 -8z
m-1889 -5 c3 -5 1 -10 -4 -10 -6 0 -11 5 -11 10 0 6 2 10 4 10 3 0 8 -4 11
-10z m-2989 -24 c8 -8 14 -26 14 -40 0 -18 5 -26 17 -26 9 0 14 -3 10 -6 -3
-3 -15 -3 -26 1 -15 4 -21 15 -21 36 0 26 -3 29 -30 29 -16 0 -30 5 -30 10 0
15 49 12 66 -4z m1837 -1 c-6 -17 -25 -15 -31 3 -2 7 5 12 17 12 14 0 19 -5
14 -15z m1035 4 c-2 -6 -8 -10 -13 -10 -5 0 -11 4 -13 10 -2 6 4 11 13 11 9 0
15 -5 13 -11z m630 -1 c-6 -18 -25 -20 -31 -3 -5 10 0 15 14 15 12 0 19 -5 17
-12z m-3042 -53 c4 -8 11 -15 18 -15 6 0 20 -7 30 -15 16 -12 17 -18 8 -27 -9
-9 -15 -9 -20 -2 -11 16 -94 44 -130 44 -47 0 -39 18 11 23 23 2 50 4 60 5 10
1 20 -5 23 -13z m2882 -2 c3 -10 -30 -13 -142 -13 -102 0 -146 3 -146 11 0 8
20 10 68 6 37 -4 92 -3 122 2 69 11 92 9 98 -6z m1472 2 c0 -12 -20 -15 -120
-15 -154 0 -160 18 -7 23 61 1 115 4 120 5 4 1 7 -5 7 -13z m-2933 -15 c13 0
31 -6 39 -14 16 -17 19 -66 4 -66 -5 0 -10 14 -10 30 0 27 -3 30 -30 30 -16 0
-30 2 -30 4 0 2 -2 10 -3 18 -2 7 -2 10 0 6 3 -5 16 -8 30 -8z m1578 0 c-3 -5
-12 -10 -18 -10 -7 0 -6 4 3 10 19 12 23 12 15 0z m-2005 -40 c0 -29 -4 -40
-15 -40 -11 0 -15 11 -15 40 0 29 4 40 15 40 11 0 15 -11 15 -40z m3460 25
c-7 -8 -23 -15 -36 -15 -15 0 -24 6 -24 15 0 11 11 15 36 15 31 0 35 -2 24
-15z m-4820 -15 c0 -21 -15 -27 -25 -10 -7 12 2 30 16 30 5 0 9 -9 9 -20z
m3307 -3 c-6 -20 -27 -19 -27 2 0 14 5 19 15 14 9 -3 14 -10 12 -16z m-3089
-54 c-15 -2 -42 -2 -60 0 -18 2 -6 4 27 4 33 0 48 -2 33 -4z m2885 0 c-13 -2
-33 -2 -45 0 -13 2 -3 4 22 4 25 0 35 -2 23 -4z m1520 0 c-13 -2 -33 -2 -45 0
-13 2 -3 4 22 4 25 0 35 -2 23 -4z"/>
<path d="M19165 7612 c59 -25 83 -44 90 -75 4 -15 11 -27 16 -27 5 0 9 -9 9
-20 0 -11 5 -20 10 -20 6 0 10 -6 10 -13 0 -18 24 -67 33 -67 4 0 7 -7 7 -15
0 -8 4 -23 10 -33 5 -9 18 -37 29 -62 31 -73 50 -114 60 -130 5 -8 17 -33 26
-55 44 -107 118 -259 128 -263 4 -2 7 -10 7 -18 0 -8 4 -22 10 -32 5 -9 18
-38 29 -64 11 -27 25 -48 30 -48 6 0 11 -9 11 -20 0 -11 4 -28 9 -38 5 -9 20
-44 33 -77 13 -33 26 -61 31 -63 4 -2 7 -12 7 -22 0 -10 3 -20 8 -22 7 -3 40
-67 67 -133 9 -22 23 -53 31 -70 7 -16 20 -46 29 -65 8 -19 19 -42 24 -50 5
-8 26 -51 46 -95 20 -44 45 -98 55 -120 11 -22 25 -55 32 -72 7 -18 16 -33 20
-33 5 0 8 -7 8 -15 0 -8 4 -23 10 -33 5 -9 19 -38 30 -64 11 -27 25 -48 30
-48 6 0 10 -9 10 -19 0 -11 5 -23 10 -26 6 -3 10 -14 10 -23 0 -21 42 -126 53
-130 4 -2 7 -12 7 -22 0 -10 3 -20 8 -22 7 -3 39 -65 67 -133 10 -22 36 -80
60 -130 23 -49 57 -121 75 -160 17 -38 40 -88 50 -110 11 -22 25 -55 32 -72 7
-18 16 -33 20 -33 5 0 8 -6 8 -14 0 -16 62 -140 73 -144 4 -2 7 -10 7 -18 0
-8 4 -22 9 -32 8 -16 20 -49 45 -119 6 -18 14 -33 18 -33 5 0 8 -9 8 -20 0
-11 4 -20 8 -20 8 0 24 -32 70 -140 8 -19 34 -75 57 -125 24 -49 55 -117 70
-150 14 -33 37 -82 50 -110 13 -27 30 -65 37 -82 7 -18 16 -33 20 -33 5 0 8
-6 8 -14 0 -16 62 -140 73 -144 4 -2 7 -12 7 -22 0 -10 5 -22 10 -25 6 -3 10
-15 10 -25 0 -11 14 -48 30 -82 17 -34 30 -67 30 -75 0 -7 4 -13 8 -13 5 0 19
-24 32 -52 12 -29 37 -84 55 -123 18 -38 35 -80 39 -92 4 -13 11 -23 16 -23 4
0 11 -11 14 -25 7 -28 41 -103 108 -241 23 -49 46 -102 49 -119 4 -16 7 1101
8 2483 l1 2512 -1202 -1 c-1140 0 -1201 -1 -1163 -17z"/>
</g>
</svg>
